# Blender v2.90.1 OBJ File: 'wedge.blend'
# www.blender.org
mtllib wedge.mtl
o Cube
v 5.911735 11.823470 3.197340
v 5.911735 0.000000 -8.952891
v 5.911735 11.823470 6.228010
v 5.911735 0.000000 6.228010
v -5.911735 11.823470 3.197340
v -5.911735 0.000000 -8.952891
v -5.911735 11.823470 6.228010
v -5.911735 0.000000 6.228010
vt 0.333333 0.401883
vt 0.000000 0.453370
vt 0.000000 0.401883
vt 0.333333 0.719725
vt 0.666667 1.000000
vt 0.333333 1.000000
vt 1.000000 0.359863
vt 0.666667 0.288021
vt 1.000000 0.000000
vt 0.666667 0.359863
vt 0.333333 0.719725
vt 0.333333 0.359863
vt 0.333333 0.071842
vt 0.666667 0.000000
vt 0.000000 0.000000
vt 0.333333 0.000000
vt 0.333333 0.453370
vt 0.666667 0.719725
vt 0.666667 0.359863
vt 0.666667 0.719725
vt 0.333333 0.000000
vn 0.0000 1.0000 0.0000
vn 0.0000 0.0000 1.0000
vn -1.0000 0.0000 0.0000
vn 0.0000 -1.0000 0.0000
vn 1.0000 0.0000 0.0000
vn 0.0000 0.7167 -0.6974
usemtl Material
s off
f 5/1/1 3/2/1 1/3/1
f 3/4/2 8/5/2 4/6/2
f 8/7/3 5/8/3 6/9/3
f 2/10/4 8/11/4 6/12/4
f 1/13/5 4/14/5 2/10/5
f 5/1/6 2/15/6 6/16/6
f 5/1/1 7/17/1 3/2/1
f 3/4/2 7/18/2 8/5/2
f 8/7/3 7/19/3 5/8/3
f 2/10/4 4/20/4 8/11/4
f 1/13/5 3/21/5 4/14/5
f 5/1/6 1/3/6 2/15/6
